<svg width="16" height="16" viewBox="0 0 16 16" fill="none" xmlns="http://www.w3.org/2000/svg">
<path d="M8.50002 4.6665C8.50002 4.39036 8.27616 4.1665 8.00002 4.1665C7.72388 4.1665 7.50002 4.39036 7.50002 4.6665V7.99984C7.50002 8.17223 7.58883 8.33247 7.73502 8.42384L9.73502 9.67384C9.96919 9.82019 10.2777 9.74901 10.424 9.51484C10.5704 9.28067 10.4992 8.97219 10.265 8.82584L8.50002 7.72271V4.6665Z" fill="url(#paint0_linear_0_226)"/>
<path fill-rule="evenodd" clip-rule="evenodd" d="M8.00002 2.1665C4.77836 2.1665 2.16669 4.77818 2.16669 7.99984C2.16669 11.2215 4.77836 13.8332 8.00002 13.8332C11.2217 13.8332 13.8334 11.2215 13.8334 7.99984C13.8334 4.77818 11.2217 2.1665 8.00002 2.1665ZM3.16669 7.99984C3.16669 5.33046 5.33064 3.1665 8.00002 3.1665C10.6694 3.1665 12.8334 5.33046 12.8334 7.99984C12.8334 10.6692 10.6694 12.8332 8.00002 12.8332C5.33064 12.8332 3.16669 10.6692 3.16669 7.99984Z" fill="url(#paint1_linear_0_226)"/>
<defs>
<linearGradient id="paint0_linear_0_226" x1="4.26193" y1="13.8332" x2="4.26193" y2="2.1665" gradientUnits="userSpaceOnUse">
<stop stop-color="#F96E09"/>
<stop offset="1" stop-color="#ECD823"/>
</linearGradient>
<linearGradient id="paint1_linear_0_226" x1="4.26193" y1="13.8332" x2="4.26193" y2="2.1665" gradientUnits="userSpaceOnUse">
<stop stop-color="#F96E09"/>
<stop offset="1" stop-color="#ECD823"/>
</linearGradient>
</defs>
</svg>
