<svg width="14" height="18" viewBox="0 0 14 18" fill="none" xmlns="http://www.w3.org/2000/svg">
<path fill-rule="evenodd" clip-rule="evenodd" d="M6.1558 4.68349C6.84499 4.02217 7.93315 4.02217 8.62235 4.68349L12.2849 8.19797C12.3747 8.28408 12.435 8.39624 12.4575 8.51857C12.8962 10.9109 12.9285 13.36 12.5533 15.7631L12.4642 16.3335H10.1078V11.4162C10.1078 11.0882 9.84199 10.8224 9.51407 10.8224H5.26407C4.93615 10.8224 4.67032 11.0882 4.67032 11.4162V16.3335H2.31396L2.22488 15.7631C1.8496 13.36 1.88198 10.9109 2.32067 8.51857C2.3431 8.39624 2.40346 8.28408 2.4932 8.19797L6.1558 4.68349ZM9.44453 3.82666C8.29587 2.72445 6.48228 2.72445 5.33361 3.82666L1.67101 7.34113C1.4014 7.59984 1.22004 7.93685 1.15264 8.30439C0.689889 10.8279 0.65573 13.4114 1.0516 15.9463L1.19471 16.8626C1.25389 17.2416 1.58028 17.521 1.96383 17.521H5.26407C5.59199 17.521 5.85782 17.2551 5.85782 16.9272V12.0099H8.92032V16.9272C8.92032 17.2551 9.18615 17.521 9.51407 17.521H12.8143C13.1979 17.521 13.5243 17.2416 13.5834 16.8626L13.7265 15.9463C14.1224 13.4114 14.0883 10.8279 13.6255 8.30439C13.5581 7.93685 13.3767 7.59984 13.1071 7.34113L9.44453 3.82666Z" fill="url(#paint0_linear_0_844)"/>
<defs>
<linearGradient id="paint0_linear_0_844" x1="14.3376" y1="14.8588" x2="-1.2998" y2="14.0661" gradientUnits="userSpaceOnUse">
<stop stop-color="#F96E09"/>
<stop offset="1" stop-color="#ECD823"/>
</linearGradient>
</defs>
</svg>
